<svg id="visual" viewBox="0 0 900 600" width="900" height="600" xmlns="http://www.w3.org/2000/svg" xmlns:xlink="http://www.w3.org/1999/xlink" version="1.1"><path d="M0 79L15 75C30 71 60 63 90 57C120 51 150 47 180 47C210 47 240 51 270 56C300 61 330 67 360 68C390 69 420 65 450 64C480 63 510 65 540 64C570 63 600 59 630 61C660 63 690 71 720 69C750 67 780 55 810 53C840 51 870 59 885 63L900 67L900 0L885 0C870 0 840 0 810 0C780 0 750 0 720 0C690 0 660 0 630 0C600 0 570 0 540 0C510 0 480 0 450 0C420 0 390 0 360 0C330 0 300 0 270 0C240 0 210 0 180 0C150 0 120 0 90 0C60 0 30 0 15 0L0 0Z" fill="#365c5c"></path><path d="M0 277L15 274C30 271 60 265 90 256C120 247 150 235 180 228C210 221 240 219 270 230C300 241 330 265 360 264C390 263 420 237 450 243C480 249 510 287 540 286C570 285 600 245 630 231C660 217 690 229 720 223C750 217 780 193 810 196C840 199 870 229 885 244L900 259L900 65L885 61C870 57 840 49 810 51C780 53 750 65 720 67C690 69 660 61 630 59C600 57 570 61 540 62C510 63 480 61 450 62C420 63 390 67 360 66C330 65 300 59 270 54C240 49 210 45 180 45C150 45 120 49 90 55C60 61 30 69 15 73L0 77Z" fill="#274646"></path><path d="M0 349L15 351C30 353 60 357 90 347C120 337 150 313 180 299C210 285 240 281 270 294C300 307 330 337 360 335C390 333 420 299 450 302C480 305 510 345 540 346C570 347 600 309 630 303C660 297 690 323 720 326C750 329 780 309 810 305C840 301 870 313 885 319L900 325L900 257L885 242C870 227 840 197 810 194C780 191 750 215 720 221C690 227 660 215 630 229C600 243 570 283 540 284C510 285 480 247 450 241C420 235 390 261 360 262C330 263 300 239 270 228C240 217 210 219 180 226C150 233 120 245 90 254C60 263 30 269 15 272L0 275Z" fill="#193232"></path><path d="M0 421L15 424C30 427 60 433 90 438C120 443 150 447 180 440C210 433 240 415 270 418C300 421 330 445 360 440C390 435 420 401 450 400C480 399 510 431 540 429C570 427 600 391 630 395C660 399 690 443 720 451C750 459 780 431 810 423C840 415 870 427 885 433L900 439L900 323L885 317C870 311 840 299 810 303C780 307 750 327 720 324C690 321 660 295 630 301C600 307 570 345 540 344C510 343 480 303 450 300C420 297 390 331 360 333C330 335 300 305 270 292C240 279 210 283 180 297C150 311 120 335 90 345C60 355 30 351 15 349L0 347Z" fill="#172c2d"></path><path d="M0 601L15 601C30 601 60 601 90 601C120 601 150 601 180 601C210 601 240 601 270 601C300 601 330 601 360 601C390 601 420 601 450 601C480 601 510 601 540 601C570 601 600 601 630 601C660 601 690 601 720 601C750 601 780 601 810 601C840 601 870 601 885 601L900 601L900 437L885 431C870 425 840 413 810 421C780 429 750 457 720 449C690 441 660 397 630 393C600 389 570 425 540 427C510 429 480 397 450 398C420 399 390 433 360 438C330 443 300 419 270 416C240 413 210 431 180 438C150 445 120 441 90 436C60 431 30 425 15 422L0 419Z" fill="#152627"></path></svg>