<svg xmlns="http://www.w3.org/2000/svg" version="1.1" xmlns:xlink="http://www.w3.org/1999/xlink" xmlns:svgjs="http://svgjs.com/svgjs" width="1920" height="1080" preserveAspectRatio="none" viewBox="0 0 1920 1080"><g mask="url(&quot;#SvgjsMask1104&quot;)" fill="none"><rect width="1920" height="1080" x="0" y="0" fill="url(#SvgjsLinearGradient1105)"></rect><path d="M417.2263355620158 850.3127518236922L550.7897993002925 1055.9824500799841 622.8960338183077 716.7492880854154z" fill="rgba(28, 83, 142, 0.4)" class="triangle-float2"></path><path d="M165.441,1288.964C231.622,1289.02,285.393,1241.56,318.088,1184.019C350.334,1127.267,362.291,1057.597,328.707,1001.627C295.906,946.963,229.174,928.144,165.441,929.623C104.636,931.034,46.044,956.732,14.794,1008.911C-17.303,1062.505,-16.354,1128.746,13.24,1183.761C44.555,1241.975,99.339,1288.908,165.441,1288.964" fill="rgba(28, 83, 142, 0.4)" class="triangle-float3"></path><path d="M942.891,704.329C990.924,701.01,1036.396,685.011,1064.257,645.742C1097.906,598.314,1124.282,538.026,1097.506,486.405C1069.263,431.956,1004.197,409.785,942.891,411.768C885.119,413.637,834.786,446.533,804.683,495.877C773.11,547.629,755.028,614.267,788.528,664.793C819.987,712.24,886.097,708.253,942.891,704.329" fill="rgba(28, 83, 142, 0.4)" class="triangle-float1"></path><path d="M1981.1947612470315 940.8314042652034L1719.3880868110464 870.6805172770034 1649.2371998228464 1132.4871917129883 1911.0438742588315 1202.6380787011885z" fill="rgba(28, 83, 142, 0.4)" class="triangle-float3"></path><path d="M272.9001245761292 447.43570413330235L50.72855664149128 541.7419395993576 145.03479210754648 763.9135075339955 367.20636004218443 669.6072720679402z" fill="rgba(28, 83, 142, 0.4)" class="triangle-float3"></path><path d="M1767.2265152929979 736.2033013973135L1697.9974977309328 1036.0671207677929 1997.8613171014122 1105.296138329858 2067.0903346634773 805.4323189593786z" fill="rgba(28, 83, 142, 0.4)" class="triangle-float1"></path><path d="M721.9221262770118 298.9130027693469L532.8483377843135 268.9666565988911 691.9757801065559 487.98679126204524z" fill="rgba(28, 83, 142, 0.4)" class="triangle-float2"></path><path d="M891.91965019445 237.67371879717538L1039.1287158328169 370.221356855267 1164.3456401007709 83.13393936867078z" fill="rgba(28, 83, 142, 0.4)" class="triangle-float1"></path><path d="M1189.898,1071.224C1241.733,1068.643,1289.393,1041.901,1314.44,996.446C1338.66,952.492,1331.842,900.496,1308.433,856.105C1283.031,807.935,1244.249,763.675,1189.898,760.273C1130.247,756.539,1073.009,788.046,1042.531,839.459C1011.458,891.876,1009.153,958.596,1041.849,1010.017C1072.559,1058.315,1132.734,1074.07,1189.898,1071.224" fill="rgba(28, 83, 142, 0.4)" class="triangle-float1"></path><path d="M1314.035,644.748C1390.928,641.132,1446.338,579.009,1483.381,511.53C1518.728,447.141,1534.45,371.279,1499.674,306.58C1463.166,238.658,1391.143,195.693,1314.035,196.468C1238.177,197.231,1173.773,245.192,1134.751,310.248C1094.405,377.512,1077.602,459.739,1114.655,528.871C1153.575,601.486,1231.738,648.618,1314.035,644.748" fill="rgba(28, 83, 142, 0.4)" class="triangle-float1"></path><path d="M988.079,209.295C1038.639,207.922,1078.978,172.322,1104.4,128.596C1129.981,84.595,1141.134,31.796,1117.472,-13.266C1092.234,-61.329,1042.354,-93.996,988.079,-92.926C935.387,-91.887,892.985,-54.314,867.229,-8.334C842.134,36.465,835.349,90.332,860.278,135.224C885.898,181.361,935.325,210.727,988.079,209.295" fill="rgba(28, 83, 142, 0.4)" class="triangle-float2"></path><path d="M1602.855,407.104C1646.418,410.699,1693.524,395.331,1714.454,356.957C1734.787,319.678,1715.853,276.313,1694.073,239.86C1673.038,204.654,1643.862,170.756,1602.855,170.173C1561.08,169.579,1525.422,199.688,1507.028,237.2C1490.614,270.673,1500.852,308.371,1519.166,340.843C1537.901,374.06,1564.848,403.968,1602.855,407.104" fill="rgba(28, 83, 142, 0.4)" class="triangle-float3"></path><path d="M1926.397133151943 778.7084173649132L1632.2353297020911 647.4030872935189 1656.7782487536044 927.9299357147524z" fill="rgba(28, 83, 142, 0.4)" class="triangle-float1"></path><path d="M1235.2934368108845 614.2656498523887L1449.7533082602545 452.6585451371913 1288.1462035450572 238.1986736878212 1073.686332095687 399.8057784030186z" fill="rgba(28, 83, 142, 0.4)" class="triangle-float3"></path></g><defs><mask id="SvgjsMask1104"><rect width="1920" height="1080" fill="#ffffff"></rect></mask><linearGradient x1="10.94%" y1="-19.44%" x2="89.06%" y2="119.44%" gradientUnits="userSpaceOnUse" id="SvgjsLinearGradient1105"><stop stop-color="#0e2a47" offset="0"></stop><stop stop-color="rgba(0, 0, 0, 1)" offset="1"></stop></linearGradient><style>
            @keyframes float1 {
                0%{transform: translate(0, 0)}
                50%{transform: translate(-10px, 0)}
                100%{transform: translate(0, 0)}
            }

            .triangle-float1 {
                animation: float1 5s infinite;
            }

            @keyframes float2 {
                0%{transform: translate(0, 0)}
                50%{transform: translate(-5px, -5px)}
                100%{transform: translate(0, 0)}
            }

            .triangle-float2 {
                animation: float2 4s infinite;
            }

            @keyframes float3 {
                0%{transform: translate(0, 0)}
                50%{transform: translate(0, -10px)}
                100%{transform: translate(0, 0)}
            }

            .triangle-float3 {
                animation: float3 6s infinite;
            }
        </style></defs></svg>