<svg style="object-fit:cover" id="my-svg" version="1" baseProfile="full" width="100%" height="100%" viewBox="0 0 1920 1007" xmlns="http://www.w3.org/2000/svg"><rect width="1920" height="1007" fill="#000"/><defs><linearGradient id="linear-gradient" x1="0.5" x2="1" y1="1" y2="0"><stop offset="0%" stop-color="#12bdca90"/><stop offset="100%" stop-color="#1c61ba90"/></linearGradient></defs><path transform="scale(1, 1)" d="M 0,1007 V 0,604 C 64.44903015809753,586.538889521532 128.89806031619506,569.0777790430641 176,574 C 223.10193968380494,578.9222209569359 252.8567888933174,606.2277733492758 311,607 C 369.1432111066826,607.7722266507242 455.67478411053537,582.0111275598323 505,581 C 554.3252158894646,579.9888724401677 566.444074664541,603.7277164113952 617,632 C 667.555925335459,660.2722835886048 756.5489172313005,693.0780067945872 815,623 C 873.4510827686995,552.9219932054128 901.3602564102565,379.96025641025636 955,395 C 1008.6397435897435,410.03974358974364 1088.0100571276737,613.0809675643874 1142,716 C 1195.9899428723263,818.9190324356126 1224.5995150790488,821.7158733321945 1266,828 C 1307.4004849209512,834.2841266678055 1361.5918825561316,844.0555391068345 1425,759 C 1488.4081174438684,673.9444608931655 1561.0329546964263,494.06197024046764 1619,408 C 1676.9670453035737,321.93802975953236 1720.276298658164,329.696579931295 1768,378 C 1815.723701341836,426.303420068705 1867.861850670918,515.1517100343525 1920,604 C 1920,604 1920,1007 1920,1007 Z" stroke="none" stroke-width="0" fill="url(#linear-gradient)" class="transition-all duration-300 ease-in-out delay-150" style="transform-origin: center center;"/><defs><linearGradient id="linear-gradient" x1="0.5" x2="1" y1="1" y2="0"><stop offset="0%" stop-color="#12bdcaff"/><stop offset="100%" stop-color="#1c61baff"/></linearGradient></defs><path transform="scale(1, 1)" d="M 0,1007 V 0,906 C 40.3376425819431,1014.2724060050485 80.6752851638862,1122.544812010097 144,1098 C 207.3247148361138,1073.455187989903 293.6365019263983,916.0931579646605 348,867 C 402.3634980736017,817.9068420353395 424.7787071305205,877.0825561312608 470,909 C 515.2212928694795,940.9174438687392 583.2486695515195,945.5766175102963 638,891 C 692.7513304484805,836.4233824897037 734.2266146634022,722.6109738275541 786,762 C 837.7733853365978,801.3890261724459 899.8448717948719,993.9794871794873 958,1020 C 1016.1551282051281,1046.0205128205127 1070.3938981571105,905.471077454497 1116,841 C 1161.6061018428895,776.528922545503 1198.5795355766857,788.1362030025243 1263,819 C 1327.4204644233143,849.8637969974757 1419.287959536146,899.9841105354059 1469,872 C 1518.712040463854,844.0158894645941 1526.2686262787297,737.9273548558522 1575,781 C 1623.7313737212703,824.0726451441478 1713.6375353489343,1016.3064700411851 1778,1062 C 1842.3624646510657,1107.693529958815 1881.1812323255328,1006.8467649794075 1920,906 C 1920,906 1920,1007 1920,1007 Z" stroke="none" stroke-width="0" fill="url(#linear-gradient)" class="transition-all duration-300 ease-in-out delay-150" style="transform-origin: center center;"/></svg>