<svg viewBox="0 0 1920 1080" height="1080" width="1920" xmlns="http://www.w3.org/2000/svg" version="1.1"><g transform-origin="center" transform="scale(1, 1) rotate(0)"><rect x="0" y="0" width="1920" height="1080" fill="#0a1017ff"></rect><linearGradient id="linear-gradient-r0"><stop offset="0%" stop-color="#0061ffff" stop-opacity="100%"></stop><stop offset="100%" stop-color="#00ffc7ff" stop-opacity="100%"></stop></linearGradient><filter id="shadow-r0" x="0" width="100%" y="-20%" height="150%"><feDropShadow dx="0" dy="0" stdDeviation="10" flood-color="#00000061"></feDropShadow></filter><path d="M0 0 0,718.9173948163166 C 27.42857142857143,694.4901257228851 82.28571428571429,614.3373818414658 137.14285714285714,596.7810493491589 C 192,579.2247168568521 219.4285714285714,622.2483440366015 274.2857142857143,631.1357323547825 C 329.14285714285717,640.0231206729635 356.5714285714286,624.7904770161956 411.42857142857144,641.2179909400642 C 466.2857142857143,657.6455048639327 493.7142857142857,698.4062836103886 548.5714285714286,713.2733019741252 C 603.4285714285714,728.1403203378617 630.8571428571428,725.7148117417842 685.7142857142857,715.553082758747 C 740.5714285714286,705.3913537757098 768,659.8636213129387 822.8571428571429,662.4646570589393 C 877.7142857142858,665.06569280494 905.1428571428571,720.9642219248414 960,728.5582614887505 C 1014.8571428571429,736.1523010526597 1042.2857142857142,716.0443491556495 1097.142857142857,700.4348548784851 C 1152,684.8253606013208 1179.4285714285713,641.7938608299941 1234.2857142857142,650.5107901029288 C 1289.142857142857,659.2277193758636 1316.5714285714284,723.1434771955758 1371.4285714285713,744.0195012431591 C 1426.2857142857142,764.8955252907424 1453.7142857142856,765.9741529083251 1508.5714285714284,754.8909103408455 C 1563.4285714285713,743.8076677733659 1590.857142857143,717.9994491757079 1645.7142857142858,688.6032884057611 C 1700.5714285714287,659.2071276358142 1728,591.0667055019736 1782.857142857143,607.9101064911112 C 1837.7142857142858,624.7535074802487 1892.5714285714287,739.8382559793814 1920,772.820293351449 L1920 1080 L0 1080Z" fill="none" stroke-linecap="round" stroke-width="19" style="transition: all 0.4s cubic-bezier(0.16, 1, 0.3, 1) 0s; fill: url(&quot;#linear-gradient-r0&quot;);" filter="url(#shadow-r0)"></path><path d="M0 0 0,815.9393177136778 C 27.42857142857143,803.832058339715 82.28571428571429,752.4370810930927 137.14285714285714,755.4030208438635 C 192,758.3689605946342 219.42857142857142,822.1095953710874 274.2857142857143,830.7690164675315 C 329.14285714285717,839.4284375639756 356.5714285714286,816.4995047610997 411.42857142857144,798.700126326084 C 466.2857142857143,780.9007478910684 493.7142857142857,731.8322812606891 548.5714285714286,741.7721242924531 C 603.4285714285714,751.7119673242171 630.8571428571428,824.5945823015768 685.7142857142857,848.3993414849042 C 740.5714285714286,872.2041006682316 768,873.4340509033203 822.8571428571429,860.7959202090899 C 877.7142857142858,848.1577895148595 905.1428571428571,818.7288892957569 960,785.2086880137523 C 1014.8571428571429,751.6884867317477 1042.2857142857142,673.9885216498375 1097.142857142857,693.1949137990673 C 1152,712.4013059482971 1179.4285714285713,860.9885445267955 1234.2857142857142,881.2406487599014 C 1289.142857142857,901.4927529930075 1316.5714285714284,801.5399260125557 1371.4285714285713,794.4554349645972 C 1426.2857142857142,787.3709439166387 1453.7142857142856,864.2182817026973 1508.5714285714284,845.8181935201088 C 1563.4285714285713,827.4181053375204 1590.857142857143,718.1609005393585 1645.7142857142858,702.4549940516551 C 1700.5714285714287,686.7490875639518 1728,739.9127542036771 1782.857142857143,767.2886610815922 C 1837.7142857142858,794.6645679595073 1892.5714285714287,824.9253549693028 1920,839.3345284412304 L1920 1080 L0 1080Z" fill="none" stroke-linecap="round" stroke-width="19" style="transition: all 0.4s cubic-bezier(0.16, 1, 0.3, 1) 0s; fill: url(&quot;#linear-gradient-r0&quot;);" filter="url(#shadow-r0)"></path><path d="M0 0 0,952.7791817266493 C 27.428571428571427,955.5635313967863 82.28571428571428,980.8939488983153 137.14285714285714,966.7009300773342 C 192,952.507911256353 219.42857142857142,919.4583294158056 274.2857142857143,881.8140876217434 C 329.14285714285717,844.1698458276812 356.57142857142856,756.9103377977013 411.42857142857144,778.4797211070235 C 466.28571428571433,800.0491044163456 493.7142857142857,966.9172532530253 548.5714285714286,989.6610041683539 C 603.4285714285714,1012.4047550836825 630.8571428571428,900.1545822641004 685.7142857142857,892.1984756836667 C 740.5714285714286,884.242369103233 768,970.5443498255685 822.8571428571429,949.8804712661852 C 877.7142857142858,929.2165927068019 905.1428571428571,806.5173105466614 960,788.8790828867504 C 1014.8571428571429,771.2408552268396 1042.2857142857142,830.9453273094446 1097.142857142857,861.6893329666307 C 1152,892.4333386238168 1179.4285714285713,931.6784658382833 1234.2857142857142,942.599111172681 C 1289.142857142857,953.5197565070787 1316.5714285714284,928.1389441275101 1371.4285714285713,916.2925596386194 C 1426.2857142857142,904.4461751497289 1453.7142857142856,888.4166396518175 1508.5714285714284,883.3671887282281 C 1563.4285714285713,878.3177378046388 1590.857142857143,902.7689656790097 1645.7142857142858,891.0453050206726 C 1700.5714285714287,879.3216443623354 1728,798.4027048332616 1782.857142857143,824.7488854365423 C 1837.7142857142858,851.095066039823 1892.5714285714287,983.1707435169692 1920,1022.7762080370759 L1920 1080 L0 1080Z" fill="none" stroke-linecap="round" stroke-width="19" style="transition: all 0.4s cubic-bezier(0.16, 1, 0.3, 1) 0s; fill: url(&quot;#linear-gradient-r0&quot;);" filter="url(#shadow-r0)"></path></g></svg>