<svg id="visual" viewBox="0 0 960 540" width="960" height="540" xmlns="http://www.w3.org/2000/svg" xmlns:xlink="http://www.w3.org/1999/xlink" version="1.1"><rect x="0" y="0" width="960" height="540" fill="#001220"></rect><defs><linearGradient id="grad1_0" x1="43.8%" y1="0%" x2="100%" y2="100%"><stop offset="14.444444444444446%" stop-color="#001220" stop-opacity="1"></stop><stop offset="85.55555555555554%" stop-color="#001220" stop-opacity="1"></stop></linearGradient></defs><defs><linearGradient id="grad2_0" x1="0%" y1="0%" x2="56.3%" y2="100%"><stop offset="14.444444444444446%" stop-color="#001220" stop-opacity="1"></stop><stop offset="85.55555555555554%" stop-color="#001220" stop-opacity="1"></stop></linearGradient></defs><g transform="translate(960, 0)"><path d="M0 486C-66.1 482.9 -132.1 479.8 -186 449C-239.8 418.3 -281.4 359.9 -305.5 305.5C-329.5 251.1 -335.9 200.6 -363.1 150.4C-390.2 100.1 -438.1 50.1 -486 0L0 0Z" fill="#FBAE3C"></path></g><g transform="translate(0, 540)"><path d="M0 -486C53.3 -452.7 106.6 -419.4 165.3 -399.1C224 -378.9 288 -371.7 338.7 -338.7C389.4 -305.7 426.7 -246.7 449 -186C471.3 -125.2 478.7 -62.6 486 0L0 0Z" fill="#FBAE3C"></path></g></svg>